<?xml version="1.0" encoding="utf-8"?>
<!-- Generator: Adobe Illustrator 16.0.0, SVG Export Plug-In . SVG Version: 6.00 Build 0)  -->
<!DOCTYPE svg PUBLIC "-//W3C//DTD SVG 1.1//EN" "http://www.w3.org/Graphics/SVG/1.1/DTD/svg11.dtd">
<svg version="1.1" id="Layer_1" xmlns="http://www.w3.org/2000/svg" xmlns:xlink="http://www.w3.org/1999/xlink" x="0px" y="0px"
	 width="841.89px" height="595.28px" viewBox="0 0 841.89 595.28" enable-background="new 0 0 841.89 595.28" xml:space="preserve">
<g>
	<path fill="#ED1C24" d="M406.874,571.372c147.667,0,267.366-119.699,267.366-267.346c0-147.665-119.699-267.359-267.366-267.359
		c-147.651,0-267.365,119.694-267.365,267.359C139.509,451.673,259.223,571.372,406.874,571.372"/>
	<path fill="none" stroke="#FFF200" stroke-width="7" d="M405.335,541.495c132.028,0,239.014-107.013,239.014-239.035
		c0-131.988-106.985-239.008-239.014-239.008c-132.014,0-239.041,107.02-239.041,239.008
		C166.294,434.482,273.321,541.495,405.335,541.495z"/>
	<path fill="#FFF200" d="M366.671,215.017c-1.565,6.595-10.621,6.96-21.128,5.267c-10.506-1.694-19.846-8.825-14.303-18.101
		C337.949,197.506,365.682,207.147,366.671,215.017 M311.099,251.506c-6.132,5.542-32.121-13.424,0.283-17.208
		C311.677,236.678,313.074,243.913,311.099,251.506 M330.957,234.875c4.08-0.578,16.934,1.328,14.008,5.26
		c-2.643,2.149-11.674,7.876-13.148,6.42C330.354,245.1,330.238,236.543,330.957,234.875 M577.463,274.861
		c-51.056-86.867-21.628-113.491-21.27-133.118c-91.426,17.959-129.359-33.277-135.221-30.198
		c-12.969,7.435-4.555,34.059-2.809,50.178c5.951,8.487,10.851-3.509,14.38-6.657c52.544,31.353,91.067,1.141,100.509,9.793
		c-19.961,63.597,17.266,127.083,25.58,154.145c20.319,60.947-34.137,138.02-131.002,93.786
		c58.316-73.127,19.961-142.47-34.072-175.059c-10.416-4.901-5.248-20.666,17.088-4.901c34.521,24.854,59.713,59.542,62.165,100.277
		c0,17.069,1.743,49.036-0.859,52.103c-8.351,12.61-15.778,18.575-7.544,21.359c12.252-4.285,49.057-14.7,51.492-23.553
		c-4.913-6.567-21.641-1.667-21.641-12.257c-2.18-44.662,0.834-148.441,3.823-173.463c2.744-5.113,15.727-12.11,8.006-19.467
		c-5.595-0.699-35.381-5.6-42.025-4.549c-11.828,7.357,5.951,13.572,9.453,25.208c1.501,12.629,2.374,31.187-0.345,47.478
		c-9.981-13.573-51.853-49.92-62.525-54.835c4.375-14.354,11.031-87.918-52.544-83.531c-53.417,8.923-70.94,67.785-120.419,83.903
		c0,0,25.208-3.046,34.213-6.215c9.018-3.162,24.374-19.313,46.026-34.021c20.538-9.524,62.937-20.017,59.973,30.474
		c-11.52,5.042-70.709,1.078-76.726,5.85c-6.003,4.752,5.67,7.325,9.353,9.339c1.154,7.575,0.576,13.828,0,20.134
		c-54.303,27.445-17.524,49.625,0,50.799c0.576,17.157,1.73,74.045,0,91.074c0.27,8.452-13.893,17.164-11.097,21.725
		c13.648,7.747,27.979-6.729,43.488-9.813c7.876-6.658-6.492-9.153-10.508-13.676c-4.016-4.49-1.449-76.764-1.744-88.616
		c4.682-4.202,25.978-12.085,37.061-18.204c37.101,5.831,61.022,101.567,26.567,132.228c-15.767-2.932-15.47-56.227-10.225-75.309
		c-36.779,40.273-4.669,83.19-5.542,89.85c-97.66,52.19-193.82-28.845-136.325-63.29c1.861,17.513-0.885,32.103-2.334,46.466
		c2.631,6.944,36.791-7.346,39.536-10.354c2.758-3.009-4.118-5.451-10.634-9.954c-1.745-4.547-1.873-24.412-0.872-31.423
		c5.259-1.161,19.061,3.387,26.555,3.387c1.821,0.712,4.387-3.97,2.539-7.762c-3.527-8.832-21.397-9.615-27.94-9.615
		c-2.026-8.183-2.026-85.255,0.949-101.598c5.004-10.68,8.902-15.682,4.4-17.678c-4.503-2.013-25.515,11.258-44.552,11.258
		c0,3.258,1.026,7.261,1.026,10.255c6.375,1.425,3.155,2.015,11.327,3.509c2.18,17.011,1.193,84.058,0.578,97.077
		c-79.47,24.028-5.901,169.141,166.741,111.094C575.155,502.049,638.192,363.439,577.463,274.861"/>
	<path fill="#FFF200" d="M349.339,457.888c1.156-1.456,8.929-2.27,8.929,2.983c-1.038,8.119-6.888,28.851-11.84,35.257
		c-6.428,6.779-9.75,7.607-8.184-1.751C339.809,485.038,349.339,457.888,349.339,457.888"/>
	<path fill="#FFF200" d="M388.221,479.355c0,3.823-3.077,6.907-6.926,6.907c-3.822,0-6.928-3.084-6.928-6.907
		c0-3.836,3.105-6.928,6.928-6.928C385.144,472.428,388.221,475.52,388.221,479.355 M382.321,461.569
		c-27.734-1.629-23.694,37.306-0.309,35.727c-3.079,5.951-6.694,8.46-12.891,8.46c-7.583-0.578-8.698,6.439,0,8.709
		C396.919,516.865,415.713,466.123,382.321,461.569"/>
	<path fill="#FFF200" d="M459.111,492.844c-1.154-3.622,0.871-7.529,4.514-8.672c3.644-1.153,7.518,0.878,8.674,4.521
		c1.154,3.65-0.859,7.524-4.516,8.686C464.14,498.521,460.265,496.494,459.111,492.844 M470.066,508.027
		c26.938-6.774,11.416-42.706-10.443-34.162c1.156-6.593,3.851-10.078,9.75-11.956c7.414-1.72,6.362-8.735-2.617-8.287
		C439.533,459.689,436.867,513.729,470.066,508.027"/>
	<path fill="#FFF200" d="M427.862,494.377l-9.905,0.584l-0.614-5.548l8.184-8.172h1.386 M441.985,494.377
		c-1.143-2.496-3.913,0.584-4.901-1.981c-0.345-9.352-0.691-26.914-0.691-26.914c-1.475-1.225-5.606-3.912-9.12-1.456
		c-3.491,2.457-18.962,19.255-22.759,25.683c-1.18,4.979-5.259,15.182,3.797,15.182c9.032,0,19.845,0.59,19.845,0.59
		s-1.346,8.172,1.168,9.628c2.515-0.295,7.069,1.347,7.761-0.987c0.707-2.336,0.707-5.247,0.707-8.641
		c2.104-0.712,4.194,0,4.899-1.52C443.28,496.379,443.332,497.296,441.985,494.377"/>
</g>
</svg>
